<?xml version="1.0" encoding="UTF-8"?> <svg xmlns="http://www.w3.org/2000/svg" width="69" height="67" viewBox="0 0 69 67" fill="none"> <path d="M17.257 31.4197C18.0422 31.4197 18.6787 32.0674 18.6787 32.8665C18.6787 33.6656 18.0422 34.3133 17.257 34.3133C12.7076 34.3133 8.48096 31.8114 6.22664 27.7845C5.83805 27.0902 6.0761 26.2069 6.7582 25.8112C7.4406 25.4156 8.30846 25.6579 8.69721 26.3522C10.4471 29.4779 13.7268 31.4197 17.257 31.4197ZM17.1782 45.3097V55.7645C17.1782 56.5636 17.8146 57.2113 18.5998 57.2113C19.3851 57.2113 20.0215 56.5636 20.0215 55.7645V45.3097C20.0215 44.5106 19.3851 43.8629 18.5998 43.8629C17.8146 43.8629 17.1782 44.5106 17.1782 45.3097ZM38.2802 32.8665C38.2802 33.6656 38.9166 34.3133 39.7019 34.3133C42.2985 34.3133 44.7954 33.5199 46.9226 32.0191C47.5679 31.5639 47.7283 30.6625 47.281 30.0058C46.8336 29.349 45.9478 29.1857 45.3026 29.6411C43.6536 30.8046 41.717 31.4195 39.702 31.4195C38.9166 31.4197 38.2802 32.0674 38.2802 32.8665ZM45.6663 43.7263C44.881 43.7263 44.2446 44.374 44.2446 45.1731V59.0931C43.9666 59.3946 42.7591 60.1348 39.6325 60.7694C36.6721 61.3703 32.8615 61.7013 28.9024 61.7013C24.9435 61.7013 21.133 61.3703 18.1726 60.7694C15.0461 60.1349 13.8385 59.3946 13.5606 59.0931V40.5548C14.0956 40.6131 14.6384 40.643 15.1886 40.643C18.6488 40.643 22.0349 39.4267 24.7227 37.218C25.3336 36.7161 25.429 35.8052 24.9356 35.1834C24.4425 34.562 23.5475 34.4642 22.9364 34.9667C20.7212 36.7871 18.0419 37.7494 15.1886 37.7494C8.38144 37.7494 2.84336 32.1135 2.84336 25.1862C2.84336 18.259 8.38144 12.6234 15.1884 12.6234C15.578 12.6234 15.9776 12.643 16.3767 12.6816C16.9682 12.7385 17.5312 12.4168 17.7903 11.8734C19.8753 7.50363 24.133 4.78928 28.9023 4.78928C33.6717 4.78928 37.9296 7.50379 40.0146 11.8731C40.2738 12.4165 40.8375 12.7389 41.4282 12.6814C41.8263 12.643 42.226 12.6234 42.6163 12.6234C43.4015 12.6234 44.038 11.9757 44.038 11.1766C44.038 10.3775 43.4015 9.72977 42.6163 9.72977C42.4526 9.72977 42.2879 9.73266 42.1223 9.73813C40.9013 7.54511 39.1698 5.68468 37.0708 4.31939C34.6326 2.73386 31.8082 1.89568 28.9023 1.89568C25.9967 1.89568 23.1723 2.73386 20.7341 4.31971C18.6351 5.68484 16.9036 7.54527 15.6826 9.73813C15.5169 9.73266 15.3519 9.72977 15.1884 9.72977C6.81364 9.72961 0 16.6635 0 25.1862C0 32.1262 4.51763 38.0126 10.7173 39.9596V59.2432C10.7173 61.1075 12.6845 62.472 16.7316 63.4146C19.9989 64.1755 24.3212 64.5948 28.9024 64.5948C33.4839 64.5948 37.8063 64.1757 41.0736 63.4146C45.1207 62.472 47.088 61.1073 47.088 59.2432V45.1731C47.088 44.374 46.4515 43.7263 45.6663 43.7263ZM61.228 8.12881C60.4427 8.12881 59.8063 8.77649 59.8063 9.57561V20.0303C59.8063 20.8294 60.4427 21.4771 61.228 21.4771C62.0132 21.4771 62.6497 20.8294 62.6497 20.0303V9.57561C62.6497 8.77649 62.0132 8.12881 61.228 8.12881ZM50.4532 34.8939C48.2537 36.7352 45.4706 37.7494 42.6165 37.7494C39.7633 37.7494 37.0842 36.7873 34.8685 34.9666C34.2578 34.4647 33.3624 34.562 32.8693 35.1836C32.3761 35.8052 32.4713 36.7161 33.0825 37.2181C35.7706 39.4266 39.1564 40.643 42.6165 40.643C46.1278 40.643 49.5525 39.3949 52.2597 37.1286C52.8661 36.6211 52.9533 35.7093 52.4543 35.0921C51.9555 34.4748 51.0595 34.3861 50.4532 34.8939ZM69 4.6065V24.7014C69 27.5018 64.5743 28.8939 59.788 29.1212V50.7312C61.4526 51.3292 62.6487 52.9463 62.6487 54.8425V61.6814C62.6487 64.0844 60.7276 66.0393 58.3663 66.0393C56.0047 66.0393 54.0837 64.0844 54.0837 61.6814V54.8425C54.0837 52.9461 55.2798 51.3289 56.9446 50.7312V29.1212C52.1581 28.8939 47.7324 27.5018 47.7324 24.7014V4.6065C47.7324 4.27486 47.8421 3.96894 48.0267 3.72508C49.2822 1.31921 54.2783 0.451294 58.3663 0.451294C62.453 0.451294 67.4472 1.31905 68.7043 3.72331C68.8896 3.9675 69 4.27389 69 4.6065ZM58.3661 53.3781H58.3657C57.5724 53.3781 56.9269 54.0351 56.9269 54.8425V61.6814C56.9269 62.4887 57.5724 63.1457 58.3657 63.1457C59.1596 63.1457 59.8052 62.4887 59.8052 61.6814V54.8425C59.8054 54.0351 59.1598 53.3781 58.3661 53.3781ZM66.1566 5.02687C65.7189 4.49156 63.0563 3.34473 58.3663 3.34473C53.6774 3.34473 51.0149 4.49075 50.5758 5.02639V24.5795C51.0157 25.1155 53.6785 26.261 58.3663 26.261C63.0541 26.261 65.7166 25.1155 66.1566 24.5795V5.02687ZM55.5041 8.12881C54.7189 8.12881 54.0825 8.77649 54.0825 9.57561V20.0303C54.0825 20.8294 54.7189 21.4771 55.5041 21.4771C56.2894 21.4771 56.9258 20.8294 56.9258 20.0303V9.57561C56.9258 8.77649 56.2894 8.12881 55.5041 8.12881Z" fill="#90BB32"></path> </svg> 