<?xml version="1.0" encoding="UTF-8"?> <svg xmlns="http://www.w3.org/2000/svg" width="67" height="69" viewBox="0 0 67 69" fill="none"> <path d="M66 24.941C66 18.4819 61.2309 13.0428 55.014 12.2405C53.7255 8.37615 50.1515 5.73662 46.0806 5.73662C45.1025 5.73662 44.1495 5.90946 43.2395 6.20393C40.8586 3.23579 37.2857 1.46899 33.5 1.46899C29.7206 1.46899 26.134 3.21552 23.7521 6.17726C22.839 5.88492 21.8891 5.73662 20.9194 5.73662C16.8432 5.73662 13.2703 8.38149 11.984 12.2533C5.79952 13.0556 1 18.4328 1 24.941C1 31.4438 5.79218 36.8178 11.9693 37.6265C17.8969 43.7313 21.9531 51.3843 23.6902 59.7872L24.7848 65.0748C25.0898 66.5482 26.3835 67.6172 27.8628 67.6172H39.1372C40.6164 67.6172 41.9112 66.5482 42.2152 65.0759L43.3098 59.7872C45.048 51.3843 49.1042 43.7313 55.0307 37.6265C61.2078 36.8178 66 31.4438 66 24.941ZM41.257 59.3476L40.1625 64.6374C40.0619 65.1271 39.631 65.4834 39.1372 65.4834H27.8628C27.369 65.4834 26.9381 65.1271 26.8364 64.6363L25.7419 59.3476C24.0645 51.2317 20.3081 43.7932 14.8691 37.667C16.3872 37.5081 17.8665 37.0802 19.2252 36.3857C20.1404 36.9437 21.151 37.3224 22.1931 37.5347L24.6977 45.1823C25.1202 46.4775 26.3049 47.346 27.6448 47.346C29.0978 47.346 30.3748 46.2972 30.6819 44.8516L31.3529 41.6871C32.0344 41.8962 32.7546 42.0115 33.5 42.0115C34.2423 42.0115 34.9625 41.8941 35.645 41.6807L36.3181 44.8516C36.6242 46.2972 37.9022 47.346 39.3552 47.346C40.6951 47.346 41.8798 46.4775 42.3023 45.1845L44.8089 37.5315C45.8437 37.3181 46.8428 36.9319 47.7591 36.3793C49.1084 37.0696 50.5856 37.5113 52.1298 37.6713C46.6919 43.7953 42.9355 51.2327 41.257 59.3476ZM24.4629 37.7193C25.2209 37.6894 25.9736 37.5795 26.7012 37.364C27.2589 38.7691 28.2109 39.9363 29.4071 40.7515L28.6334 44.4013C28.5338 44.8708 28.1186 45.2122 27.6458 45.2122C27.2107 45.2122 26.826 44.9295 26.6876 44.5091L24.4629 37.7193ZM37.5898 40.7344C38.7839 39.9161 39.739 38.7499 40.2967 37.363C41.0253 37.5795 41.7791 37.6937 42.5371 37.7225L40.3135 44.5091C40.1751 44.9295 39.7903 45.2122 39.3552 45.2122C38.8824 45.2122 38.4662 44.8719 38.3677 44.4013L37.5898 40.7344ZM53.4194 35.61C49.4816 35.61 45.9108 33.3973 44.1002 29.8349L42.2373 30.8143C43.0948 32.5021 44.2848 33.9318 45.698 35.051C44.0468 35.7263 42.1691 35.7893 40.498 35.1897C40.3219 34.9528 40.0514 34.7938 39.7431 34.7693C39.2242 34.7362 38.7419 35.0915 38.635 35.6196C38.1391 38.0863 35.9794 39.8777 33.5 39.8777C31.0656 39.8777 28.9804 38.2101 28.4069 35.8127C28.3923 35.7188 28.365 35.6271 28.3241 35.5375C28.084 35.0126 27.4739 34.78 26.9591 35.0062C24.6694 36.0069 21.9269 35.7295 19.8762 34.2721C19.546 34.0374 19.1119 34.0161 18.7576 34.2198C17.1881 35.1299 15.3985 35.61 13.5806 35.61C7.79984 35.61 3.09677 30.8239 3.09677 24.941C3.09677 19.058 7.79984 14.2719 13.5806 14.2719C15.6292 14.2719 17.6117 14.8715 19.3153 16.0077L20.4644 14.2239C18.615 12.9905 16.492 12.2885 14.2862 12.1637C15.474 9.58389 18.03 7.87044 20.9194 7.87044C21.8566 7.87044 22.7687 8.04754 23.6326 8.39642C23.8297 8.50205 24.0614 8.54046 24.2794 8.50311C24.5573 8.4583 24.8036 8.30254 24.9672 8.07102C26.935 5.27252 30.1252 3.60281 33.5 3.60281C36.4638 3.60281 39.2829 4.89163 41.2591 7.09906C39.8931 7.92698 38.7252 9.09738 37.9053 10.5409L39.7211 11.6078C41.0306 9.30329 43.4681 7.87044 46.0806 7.87044C49.4229 7.87044 52.3364 10.159 53.1793 13.4397C53.2694 13.9049 53.6563 14.2633 54.1375 14.2975C59.6132 14.673 63.9032 19.3493 63.9032 24.941C63.9032 30.8239 59.2002 35.61 53.4194 35.61Z" fill="#90BB32"></path> <path d="M66 24.941C66 18.4819 61.2309 13.0428 55.014 12.2405C53.7255 8.37615 50.1515 5.73662 46.0806 5.73662C45.1025 5.73662 44.1495 5.90946 43.2395 6.20393C40.8586 3.23579 37.2857 1.46899 33.5 1.46899C29.7206 1.46899 26.134 3.21552 23.7521 6.17726C22.839 5.88492 21.8891 5.73662 20.9194 5.73662C16.8432 5.73662 13.2703 8.38149 11.984 12.2533C5.79952 13.0556 1 18.4328 1 24.941C1 31.4438 5.79218 36.8178 11.9693 37.6265C17.8969 43.7313 21.9531 51.3843 23.6902 59.7872L24.7848 65.0748C25.0898 66.5482 26.3835 67.6172 27.8628 67.6172H39.1372C40.6164 67.6172 41.9112 66.5482 42.2152 65.0759L43.3098 59.7872C45.048 51.3843 49.1042 43.7313 55.0307 37.6265C61.2078 36.8178 66 31.4438 66 24.941ZM41.257 59.3476L40.1625 64.6374C40.0619 65.1271 39.631 65.4834 39.1372 65.4834H27.8628C27.369 65.4834 26.9381 65.1271 26.8364 64.6363L25.7419 59.3476C24.0645 51.2317 20.3081 43.7932 14.8691 37.667C16.3872 37.5081 17.8665 37.0802 19.2252 36.3857C20.1404 36.9437 21.151 37.3224 22.1931 37.5347L24.6977 45.1823C25.1202 46.4775 26.3049 47.346 27.6448 47.346C29.0978 47.346 30.3748 46.2972 30.6819 44.8516L31.3529 41.6871C32.0344 41.8962 32.7546 42.0115 33.5 42.0115C34.2423 42.0115 34.9625 41.8941 35.645 41.6807L36.3181 44.8516C36.6242 46.2972 37.9022 47.346 39.3552 47.346C40.6951 47.346 41.8798 46.4775 42.3023 45.1845L44.8089 37.5315C45.8437 37.3181 46.8428 36.9319 47.7591 36.3793C49.1084 37.0696 50.5856 37.5113 52.1298 37.6713C46.6919 43.7953 42.9355 51.2327 41.257 59.3476ZM24.4629 37.7193C25.2209 37.6894 25.9736 37.5795 26.7012 37.364C27.2589 38.7691 28.2109 39.9363 29.4071 40.7515L28.6334 44.4013C28.5338 44.8708 28.1186 45.2122 27.6458 45.2122C27.2107 45.2122 26.826 44.9295 26.6876 44.5091L24.4629 37.7193ZM37.5898 40.7344C38.7839 39.9161 39.739 38.7499 40.2967 37.363C41.0253 37.5795 41.7791 37.6937 42.5371 37.7225L40.3135 44.5091C40.1751 44.9295 39.7903 45.2122 39.3552 45.2122C38.8824 45.2122 38.4662 44.8719 38.3677 44.4013L37.5898 40.7344ZM53.4194 35.61C49.4816 35.61 45.9108 33.3973 44.1002 29.8349L42.2373 30.8143C43.0948 32.5021 44.2848 33.9318 45.698 35.051C44.0468 35.7263 42.1691 35.7893 40.498 35.1897C40.3219 34.9528 40.0514 34.7938 39.7431 34.7693C39.2242 34.7362 38.7419 35.0915 38.635 35.6196C38.1391 38.0863 35.9794 39.8777 33.5 39.8777C31.0656 39.8777 28.9804 38.2101 28.4069 35.8127C28.3923 35.7188 28.365 35.6271 28.3241 35.5375C28.084 35.0126 27.4739 34.78 26.9591 35.0062C24.6694 36.0069 21.9269 35.7295 19.8762 34.2721C19.546 34.0374 19.1119 34.0161 18.7576 34.2198C17.1881 35.1299 15.3985 35.61 13.5806 35.61C7.79984 35.61 3.09677 30.8239 3.09677 24.941C3.09677 19.058 7.79984 14.2719 13.5806 14.2719C15.6292 14.2719 17.6117 14.8715 19.3153 16.0077L20.4644 14.2239C18.615 12.9905 16.492 12.2885 14.2862 12.1637C15.474 9.58389 18.03 7.87044 20.9194 7.87044C21.8566 7.87044 22.7687 8.04754 23.6326 8.39642C23.8297 8.50205 24.0614 8.54046 24.2794 8.50311C24.5573 8.4583 24.8036 8.30254 24.9672 8.07102C26.935 5.27252 30.1252 3.60281 33.5 3.60281C36.4638 3.60281 39.2829 4.89163 41.2591 7.09906C39.8931 7.92698 38.7252 9.09738 37.9053 10.5409L39.7211 11.6078C41.0306 9.30329 43.4681 7.87044 46.0806 7.87044C49.4229 7.87044 52.3364 10.159 53.1793 13.4397C53.2694 13.9049 53.6563 14.2633 54.1375 14.2975C59.6132 14.673 63.9032 19.3493 63.9032 24.941C63.9032 30.8239 59.2002 35.61 53.4194 35.61Z" stroke="#90BB32"></path> <mask id="path-2-inside-1" fill="white"> <path d="M24.0645 31.3424C23.1744 31.3424 22.3252 30.953 21.7329 30.2723C20.6615 29.0411 18.7901 28.9035 17.4712 29.9651C16.3536 30.8666 15.0075 31.3424 13.5806 31.3424C10.1115 31.3424 7.29032 28.4714 7.29032 24.941H5.19354C5.19354 29.6471 8.95621 33.4763 13.5806 33.4763C15.4845 33.4763 17.2804 32.8404 18.7723 31.638C19.2115 31.2848 19.8332 31.3072 20.1635 31.687C21.1531 32.8244 22.5748 33.4763 24.0645 33.4763C26.9549 33.4763 29.3065 31.0832 29.3065 28.1417H27.2097C27.2097 29.9064 25.7986 31.3424 24.0645 31.3424Z"></path> </mask> <path d="M24.0645 31.3424C23.1744 31.3424 22.3252 30.953 21.7329 30.2723C20.6615 29.0411 18.7901 28.9035 17.4712 29.9651C16.3536 30.8666 15.0075 31.3424 13.5806 31.3424C10.1115 31.3424 7.29032 28.4714 7.29032 24.941H5.19354C5.19354 29.6471 8.95621 33.4763 13.5806 33.4763C15.4845 33.4763 17.2804 32.8404 18.7723 31.638C19.2115 31.2848 19.8332 31.3072 20.1635 31.687C21.1531 32.8244 22.5748 33.4763 24.0645 33.4763C26.9549 33.4763 29.3065 31.0832 29.3065 28.1417H27.2097C27.2097 29.9064 25.7986 31.3424 24.0645 31.3424Z" fill="#90BB32"></path> <path d="M21.7329 30.2723L30.7853 22.3949L30.7851 22.3947L21.7329 30.2723ZM17.4712 29.9651L9.9469 20.6171L9.93685 20.6252L17.4712 29.9651ZM7.29032 24.941H19.2903V12.941H7.29032V24.941ZM5.19354 24.941V12.941H-6.80646V24.941H5.19354ZM18.7723 31.638L11.2535 22.2855L11.2477 22.2902L11.2419 22.2949L18.7723 31.638ZM20.1635 31.687L11.1078 39.5607L11.111 39.5644L20.1635 31.687ZM29.3065 28.1417H41.3065V16.1417H29.3065V28.1417ZM27.2097 28.1417V16.1417H15.2097V28.1417H27.2097ZM24.0645 19.3424C26.6961 19.3424 29.1316 20.4945 30.7853 22.3949L12.6805 38.1498C15.5189 41.4115 19.6527 43.3424 24.0645 43.3424V19.3424ZM30.7851 22.3947C25.2486 16.0326 16.0089 15.7377 9.94691 20.6171L24.9955 39.313C21.5713 42.0692 16.0743 42.0496 12.6807 38.15L30.7851 22.3947ZM9.93685 20.6252C10.9434 19.8132 12.2535 19.3424 13.5806 19.3424V43.3424C17.7615 43.3424 21.7639 41.92 25.0056 39.3049L9.93685 20.6252ZM13.5806 19.3424C16.9362 19.3424 19.2903 22.043 19.2903 24.941H-4.70968C-4.70968 34.8998 3.28685 43.3424 13.5806 43.3424V19.3424ZM7.29032 12.941H5.19354V36.941H7.29032V12.941ZM-6.80646 24.941C-6.80646 36.0755 2.13153 45.4763 13.5806 45.4763V21.4763C15.7809 21.4763 17.1935 23.2187 17.1935 24.941H-6.80646ZM13.5806 45.4763C18.2433 45.4763 22.6924 43.8909 26.3026 40.9811L11.2419 22.2949C11.8684 21.7899 12.7257 21.4763 13.5806 21.4763V45.4763ZM26.291 40.9904C22.6562 43.9125 15.7652 44.9173 11.1078 39.5607L29.2192 23.8134C23.9013 17.6971 15.7668 18.6571 11.2535 22.2855L26.291 40.9904ZM11.111 39.5644C14.349 43.2855 19.0565 45.4763 24.0645 45.4763V21.4763C26.093 21.4763 27.9573 22.3632 29.216 23.8097L11.111 39.5644ZM24.0645 45.4763C33.7796 45.4763 41.3065 37.5116 41.3065 28.1417H17.3065C17.3065 24.6548 20.1303 21.4763 24.0645 21.4763V45.4763ZM29.3065 16.1417H27.2097V40.1417H29.3065V16.1417ZM15.2097 28.1417C15.2097 23.478 18.9739 19.3424 24.0645 19.3424V43.3424C32.6232 43.3424 39.2097 36.3348 39.2097 28.1417H15.2097Z" fill="#90BB32" mask="url(#path-2-inside-1)"></path> <path d="M67 24.6455C67 17.9877 62.0841 12.3813 55.6759 11.5543C54.3478 7.571 50.6639 4.85025 46.4677 4.85025C45.4595 4.85025 44.4772 5.02841 43.5392 5.33193C41.0851 2.27246 37.4022 0.451294 33.5 0.451294C29.6043 0.451294 25.9074 2.25157 23.4522 5.30444C22.5109 5.00311 21.5319 4.85025 20.5323 4.85025C16.3307 4.85025 12.6479 7.5765 11.3219 11.5674C4.94719 12.3945 0 17.9371 0 24.6455C0 31.3484 4.93963 36.8878 11.3068 37.7214C17.4168 44.0141 21.5978 51.9026 23.3884 60.5641L24.5166 66.0144C24.8311 67.5331 26.1646 68.6351 27.6894 68.6351H39.3106C40.8354 68.6351 42.17 67.5331 42.4834 66.0155L43.6116 60.5641C45.4033 51.9026 49.5843 44.0141 55.6932 37.7214C62.0604 36.8878 67 31.3484 67 24.6455ZM41.4957 60.111L40.3675 65.5635C40.2638 66.0683 39.8196 66.4356 39.3106 66.4356H27.6894C27.1804 66.4356 26.7362 66.0683 26.6314 65.5624L25.5032 60.111C23.7742 51.7453 19.9022 44.0779 14.2959 37.7632C15.8606 37.5994 17.3854 37.1584 18.7859 36.4424C19.7293 37.0176 20.7711 37.408 21.8452 37.6269L24.4269 45.5098C24.8624 46.8449 26.0835 47.74 27.4646 47.74C28.9624 47.74 30.2786 46.659 30.5952 45.1689L31.2868 41.907C31.9893 42.1226 32.7317 42.2414 33.5 42.2414C34.2651 42.2414 35.0075 42.1204 35.711 41.9004L36.4048 45.1689C36.7203 46.659 38.0376 47.74 39.5354 47.74C40.9165 47.74 42.1376 46.8449 42.5731 45.512L45.1569 37.6236C46.2235 37.4036 47.2534 37.0055 48.1979 36.4358C49.5886 37.1474 51.1113 37.6027 52.7031 37.7676C47.0978 44.0801 43.2258 51.7464 41.4957 60.111ZM24.1848 37.8171C24.9661 37.7863 25.742 37.673 26.492 37.4509C27.0669 38.8992 28.0481 40.1024 29.2812 40.9426L28.4836 44.7048C28.381 45.1887 27.9531 45.5406 27.4657 45.5406C27.0172 45.5406 26.6206 45.2491 26.478 44.8158L24.1848 37.8171ZM37.7156 40.925C38.9465 40.0815 39.9309 38.8795 40.5058 37.4498C41.2569 37.673 42.0339 37.7907 42.8152 37.8204L40.5231 44.8158C40.3805 45.2491 39.9839 45.5406 39.5354 45.5406C39.048 45.5406 38.619 45.1898 38.5174 44.7048L37.7156 40.925ZM54.0323 35.6429C49.9734 35.6429 46.2927 33.3621 44.4264 29.69L42.5061 30.6996C43.3901 32.4394 44.6166 33.913 46.0733 35.0667C44.3713 35.7628 42.4359 35.8277 40.7133 35.2096C40.5318 34.9655 40.253 34.8016 39.9352 34.7763C39.4003 34.7422 38.9032 35.1084 38.793 35.6528C38.2819 38.1954 36.0557 40.0419 33.5 40.0419C30.9907 40.0419 28.8413 38.323 28.2502 35.8519C28.2351 35.7551 28.207 35.6605 28.1649 35.5681C27.9174 35.0271 27.2885 34.7873 26.7579 35.0205C24.3977 36.052 21.5708 35.7661 19.457 34.2639C19.1166 34.0219 18.6692 33.9999 18.304 34.21C16.6862 35.148 14.8416 35.6429 12.9677 35.6429C7.00906 35.6429 2.16129 30.7095 2.16129 24.6455C2.16129 18.5816 7.00906 13.6482 12.9677 13.6482C15.0793 13.6482 17.1228 14.2662 18.8789 15.4374L20.0633 13.5987C18.157 12.3274 15.9687 11.6037 13.695 11.4751C14.9194 8.8159 17.554 7.04972 20.5323 7.04972C21.4984 7.04972 22.4385 7.23228 23.329 7.5919C23.5321 7.70077 23.771 7.74036 23.9957 7.70187C24.2821 7.65568 24.536 7.49512 24.7046 7.25647C26.733 4.37186 30.0214 2.65077 33.5 2.65077C36.555 2.65077 39.4608 3.97925 41.4979 6.25461C40.0898 7.10801 38.8859 8.31442 38.0409 9.80237L39.9125 10.9021C41.2623 8.52667 43.7748 7.04972 46.4677 7.04972C49.9128 7.04972 52.916 9.40866 53.7848 12.7904C53.8777 13.2698 54.2765 13.6394 54.7725 13.6745C60.4167 14.0617 64.8387 18.8818 64.8387 24.6455C64.8387 30.7095 59.9909 35.6429 54.0323 35.6429Z" fill="#90BB32"></path> <path d="M67 24.6455C67 17.9877 62.0841 12.3813 55.6759 11.5543C54.3478 7.571 50.6639 4.85025 46.4677 4.85025C45.4595 4.85025 44.4772 5.02841 43.5392 5.33193C41.0851 2.27246 37.4022 0.451294 33.5 0.451294C29.6043 0.451294 25.9074 2.25157 23.4522 5.30444C22.5109 5.00311 21.5319 4.85025 20.5323 4.85025C16.3307 4.85025 12.6479 7.5765 11.3219 11.5674C4.94719 12.3945 0 17.9371 0 24.6455C0 31.3484 4.93963 36.8878 11.3068 37.7214C17.4168 44.0141 21.5978 51.9026 23.3884 60.5641L24.5166 66.0144C24.8311 67.5331 26.1646 68.6351 27.6894 68.6351H39.3106C40.8354 68.6351 42.17 67.5331 42.4834 66.0155L43.6116 60.5641C45.4033 51.9026 49.5843 44.0141 55.6932 37.7214C62.0604 36.8878 67 31.3484 67 24.6455ZM41.4957 60.111L40.3675 65.5635C40.2638 66.0683 39.8196 66.4356 39.3106 66.4356H27.6894C27.1804 66.4356 26.7362 66.0683 26.6314 65.5624L25.5032 60.111C23.7742 51.7453 19.9022 44.0779 14.2959 37.7632C15.8606 37.5994 17.3854 37.1584 18.7859 36.4424C19.7293 37.0176 20.7711 37.408 21.8452 37.6269L24.4269 45.5098C24.8624 46.8449 26.0835 47.74 27.4646 47.74C28.9624 47.74 30.2786 46.659 30.5952 45.1689L31.2868 41.907C31.9893 42.1226 32.7317 42.2414 33.5 42.2414C34.2651 42.2414 35.0075 42.1204 35.711 41.9004L36.4048 45.1689C36.7203 46.659 38.0376 47.74 39.5354 47.74C40.9165 47.74 42.1376 46.8449 42.5731 45.512L45.1569 37.6236C46.2235 37.4036 47.2534 37.0055 48.1979 36.4358C49.5886 37.1474 51.1113 37.6027 52.7031 37.7676C47.0978 44.0801 43.2258 51.7464 41.4957 60.111ZM24.1848 37.8171C24.9661 37.7863 25.742 37.673 26.492 37.4509C27.0669 38.8992 28.0481 40.1024 29.2812 40.9426L28.4836 44.7048C28.381 45.1887 27.9531 45.5406 27.4657 45.5406C27.0172 45.5406 26.6206 45.2491 26.478 44.8158L24.1848 37.8171ZM37.7156 40.925C38.9465 40.0815 39.9309 38.8795 40.5058 37.4498C41.2569 37.673 42.0339 37.7907 42.8152 37.8204L40.5231 44.8158C40.3805 45.2491 39.9839 45.5406 39.5354 45.5406C39.048 45.5406 38.619 45.1898 38.5174 44.7048L37.7156 40.925ZM54.0323 35.6429C49.9734 35.6429 46.2927 33.3621 44.4264 29.69L42.5061 30.6996C43.3901 32.4394 44.6166 33.913 46.0733 35.0667C44.3713 35.7628 42.4359 35.8277 40.7133 35.2096C40.5318 34.9655 40.253 34.8016 39.9352 34.7763C39.4003 34.7422 38.9032 35.1084 38.793 35.6528C38.2819 38.1954 36.0557 40.0419 33.5 40.0419C30.9907 40.0419 28.8413 38.323 28.2502 35.8519C28.2351 35.7551 28.207 35.6605 28.1649 35.5681C27.9174 35.0271 27.2885 34.7873 26.7579 35.0205C24.3977 36.052 21.5708 35.7661 19.457 34.2639C19.1166 34.0219 18.6692 33.9999 18.304 34.21C16.6862 35.148 14.8416 35.6429 12.9677 35.6429C7.00906 35.6429 2.16129 30.7095 2.16129 24.6455C2.16129 18.5816 7.00906 13.6482 12.9677 13.6482C15.0793 13.6482 17.1228 14.2662 18.8789 15.4374L20.0633 13.5987C18.157 12.3274 15.9687 11.6037 13.695 11.4751C14.9194 8.8159 17.554 7.04972 20.5323 7.04972C21.4984 7.04972 22.4385 7.23228 23.329 7.5919C23.5321 7.70077 23.771 7.74036 23.9957 7.70187C24.2821 7.65568 24.536 7.49512 24.7046 7.25647C26.733 4.37186 30.0214 2.65077 33.5 2.65077C36.555 2.65077 39.4608 3.97925 41.4979 6.25461C40.0898 7.10801 38.8859 8.31442 38.0409 9.80237L39.9125 10.9021C41.2623 8.52667 43.7748 7.04972 46.4677 7.04972C49.9128 7.04972 52.916 9.40866 53.7848 12.7904C53.8777 13.2698 54.2765 13.6394 54.7725 13.6745C60.4167 14.0617 64.8387 18.8818 64.8387 24.6455C64.8387 30.7095 59.9909 35.6429 54.0323 35.6429Z" stroke="#90BB32"></path> <mask id="path-5-inside-2" fill="white"> <path d="M23.7742 31.2439C22.8567 31.2439 21.9814 30.8425 21.3708 30.1409C20.2664 28.8718 18.3375 28.7299 16.978 29.8242C15.826 30.7534 14.4385 31.2439 12.9677 31.2439C9.39188 31.2439 6.48386 28.2846 6.48386 24.6456H4.32257C4.32257 29.4965 8.20101 33.4434 12.9677 33.4434C14.9302 33.4434 16.7813 32.7879 18.3191 31.5485C18.7719 31.1845 19.4127 31.2076 19.7531 31.5991C20.7732 32.7714 22.2386 33.4434 23.7742 33.4434C26.7535 33.4434 29.1774 30.9767 29.1774 27.9447H27.0161C27.0161 29.7637 25.5616 31.2439 23.7742 31.2439Z"></path> </mask> <path d="M23.7742 31.2439C22.8567 31.2439 21.9814 30.8425 21.3708 30.1409C20.2664 28.8718 18.3375 28.7299 16.978 29.8242C15.826 30.7534 14.4385 31.2439 12.9677 31.2439C9.39188 31.2439 6.48386 28.2846 6.48386 24.6456H4.32257C4.32257 29.4965 8.20101 33.4434 12.9677 33.4434C14.9302 33.4434 16.7813 32.7879 18.3191 31.5485C18.7719 31.1845 19.4127 31.2076 19.7531 31.5991C20.7732 32.7714 22.2386 33.4434 23.7742 33.4434C26.7535 33.4434 29.1774 30.9767 29.1774 27.9447H27.0161C27.0161 29.7637 25.5616 31.2439 23.7742 31.2439Z" fill="#90BB32"></path> <path d="M21.3708 30.1409L30.4232 22.2634L30.423 22.2632L21.3708 30.1409ZM16.978 29.8242L9.45377 20.4761L9.44371 20.4842L16.978 29.8242ZM6.48386 24.6456H18.4839V12.6456H6.48386V24.6456ZM4.32257 24.6456V12.6456H-7.67743V24.6456H4.32257ZM18.3191 31.5485L10.8004 22.196L10.7946 22.2007L10.7888 22.2054L18.3191 31.5485ZM19.7531 31.5991L10.6975 39.4728L10.7007 39.4765L19.7531 31.5991ZM29.1774 27.9447H41.1774V15.9447H29.1774V27.9447ZM27.0161 27.9447V15.9447H15.0161V27.9447H27.0161ZM23.7742 19.2439C26.3784 19.2439 28.7877 20.384 30.4232 22.2634L12.3185 38.0184C15.1751 41.3011 19.3351 43.2439 23.7742 43.2439V19.2439ZM30.423 22.2632C24.8535 15.8633 15.5563 15.5642 9.45377 20.4761L24.5023 39.1722C21.1187 41.8957 15.6793 41.8803 12.3187 38.0186L30.423 22.2632ZM9.44371 20.4842C10.4159 19.7 11.6845 19.2439 12.9677 19.2439V43.2439C17.1925 43.2439 21.2362 41.8069 24.5123 39.1641L9.44371 20.4842ZM12.9677 19.2439C16.2164 19.2439 18.4839 21.856 18.4839 24.6456H-5.51614C-5.51614 34.7131 2.56735 43.2439 12.9677 43.2439V19.2439ZM6.48386 12.6456H4.32257V36.6456H6.48386V12.6456ZM-7.67743 24.6456C-7.67743 35.925 1.37648 45.4434 12.9677 45.4434V21.4434C15.0255 21.4434 16.3226 23.0679 16.3226 24.6456H-7.67743ZM12.9677 45.4434C17.6889 45.4434 22.1933 43.8384 25.8494 40.8917L10.7888 22.2054C11.3694 21.7374 12.1714 21.4434 12.9677 21.4434V45.4434ZM25.8378 40.901C22.2165 43.8122 15.3447 44.8177 10.6975 39.4728L28.8088 23.7254C23.4807 17.5976 15.3272 18.5568 10.8004 22.196L25.8378 40.901ZM10.7007 39.4765C13.9692 43.2326 18.7204 45.4434 23.7742 45.4434V21.4434C25.7568 21.4434 27.5773 22.3103 28.8056 23.7218L10.7007 39.4765ZM23.7742 45.4434C33.5781 45.4434 41.1774 37.4053 41.1774 27.9447H17.1774C17.1774 24.5481 19.929 21.4434 23.7742 21.4434V45.4434ZM29.1774 15.9447H27.0161V39.9447H29.1774V15.9447ZM15.0161 27.9447C15.0161 23.3351 18.7371 19.2439 23.7742 19.2439V43.2439C32.3861 43.2439 39.0161 36.1923 39.0161 27.9447H15.0161Z" fill="#90BB32" mask="url(#path-5-inside-2)"></path> </svg> 