<?xml version="1.0" encoding="UTF-8"?> <svg xmlns="http://www.w3.org/2000/svg" width="77" height="58" viewBox="0 0 77 58" fill="none"> <path d="M64.9688 45.1172C63.3068 45.1172 61.9609 46.4631 61.9609 48.125C61.9609 49.7869 63.3068 51.1328 64.9688 51.1328C66.6307 51.1328 67.9766 49.7869 67.9766 48.125C67.9766 46.4631 66.6307 45.1172 64.9688 45.1172Z" fill="#90BB32"></path> <path d="M63.4648 33.0859C62.6348 33.0859 61.9609 33.7598 61.9609 34.5898C61.9609 35.4199 62.6348 36.0938 63.4648 36.0938C64.2949 36.0938 64.9688 35.4199 64.9688 34.5898C64.9688 33.7598 64.2949 33.0859 63.4648 33.0859Z" fill="#90BB32"></path> <path d="M18.9492 45.1172C17.2873 45.1172 15.9414 46.4631 15.9414 48.125C15.9414 49.7869 17.2873 51.1328 18.9492 51.1328C20.6112 51.1328 21.957 49.7869 21.957 48.125C21.957 46.4631 20.6112 45.1172 18.9492 45.1172Z" fill="#90BB32"></path> <path d="M70.6789 27.1667L68.0858 16.7944C69.0076 15.9126 69.4805 14.743 69.4805 13.5352C69.4805 11.0472 67.4567 9.02344 64.9688 9.02344H52.9375V4.51172C52.9375 2.02381 50.9137 0 48.4258 0H4.51172C2.02381 0 0 2.02381 0 4.51172V43.6133C0 46.1012 2.02381 48.125 4.51172 48.125H9.92578C9.92578 53.1008 13.9734 57.1484 18.9492 57.1484C23.925 57.1484 27.9727 53.1008 27.9727 48.125H55.9453C55.9453 53.1008 59.9929 57.1484 64.9688 57.1484C69.9446 57.1484 73.9922 53.1008 73.9922 48.125C73.9922 48.0392 73.9881 47.954 73.9857 47.8683C75.7393 47.2497 77 45.576 77 43.6133V34.5898C77 30.8512 74.2577 27.7424 70.6789 27.1667ZM65.2983 18.0469L67.5542 27.0703H55.0641L58.5125 23.6219C59.1 23.0344 59.1 22.0827 58.5125 21.4953C57.9251 20.9078 56.9734 20.9078 56.3859 21.4953L52.9375 24.9431V18.0469H65.2983ZM66.4727 13.5352C66.4727 14.3652 65.7988 15.0391 64.9688 15.0391H52.9375V12.0312H64.9688C65.7982 12.0312 66.4727 12.7057 66.4727 13.5352ZM18.9492 54.1406C15.6324 54.1406 12.9336 51.4418 12.9336 48.125C12.9336 44.7629 15.6812 42.1094 18.9492 42.1094C22.2249 42.1094 24.9648 44.77 24.9648 48.125C24.9648 51.4418 22.266 54.1406 18.9492 54.1406ZM27.4563 45.1172C26.2003 41.5683 22.8006 39.1016 18.9492 39.1016C15.096 39.1016 11.6952 41.5701 10.4416 45.1172H4.51172C3.68222 45.1172 3.00781 44.4428 3.00781 43.6133V4.51172C3.00781 3.68222 3.68222 3.00781 4.51172 3.00781H48.4258C49.2553 3.00781 49.9297 3.68222 49.9297 4.51172V45.1172H27.4563ZM64.9688 54.1406C61.6519 54.1406 58.9531 51.4418 58.9531 48.125C58.9531 44.7629 61.7007 42.1094 64.9688 42.1094C68.2444 42.1094 70.9844 44.77 70.9844 48.125C70.9844 51.4418 68.2856 54.1406 64.9688 54.1406ZM73.3689 44.8299C72.0348 41.4356 68.7156 39.1016 64.9688 39.1016C61.1156 39.1016 57.7148 41.5701 56.4611 45.1172H52.9375V30.0781H69.4805C71.4408 30.0781 73.1128 31.3353 73.7337 33.0859H69.4805C68.6498 33.0859 67.9766 33.7592 67.9766 34.5898C67.9766 35.4205 68.6498 36.0938 69.4805 36.0938H73.9922V43.6133C73.9922 44.1132 73.7455 44.5562 73.3689 44.8299Z" fill="#90BB32"></path> <path d="M26.4688 9.02344C19.0056 9.02344 12.9336 15.0955 12.9336 22.5586C12.9336 30.0217 19.0056 36.0938 26.4688 36.0938C33.9319 36.0938 40.0039 30.0217 40.0039 22.5586C40.0039 15.0955 33.9319 9.02344 26.4688 9.02344ZM26.4688 33.0859C20.664 33.0859 15.9414 28.3633 15.9414 22.5586C15.9414 16.7539 20.664 12.0312 26.4688 12.0312C32.2735 12.0312 36.9961 16.7539 36.9961 22.5586C36.9961 28.3633 32.2735 33.0859 26.4688 33.0859Z" fill="#90BB32"></path> <path d="M32.4844 21.0547H27.9727V16.543C27.9727 15.7123 27.2994 15.0391 26.4688 15.0391C25.6381 15.0391 24.9648 15.7123 24.9648 16.543V22.5586C24.9648 23.3893 25.6381 24.0625 26.4688 24.0625H32.4844C33.315 24.0625 33.9883 23.3893 33.9883 22.5586C33.9883 21.7279 33.315 21.0547 32.4844 21.0547Z" fill="#90BB32"></path> </svg> 