<?xml version="1.0" encoding="UTF-8"?> <svg xmlns="http://www.w3.org/2000/svg" width="34" height="39" viewBox="0 0 34 39" fill="none"> <path d="M33.3334 12.1247L32.5071 8.05058L30.2065 8.95917C28.188 9.75632 26.0352 10.503 23.7929 11.1841C22.8026 8.52514 21.3063 5.88239 19.335 3.31292L16.7933 0L15.1231 1.80606C12.4608 4.68495 9.45648 7.48339 5.93848 10.3613C3.16194 12.6326 1.19621 15.8062 0.403322 19.2975C-0.414042 22.8969 0.0160274 26.5583 1.64713 29.8857L6.11491 39H11.0016C15.2734 39 19.0521 38.3537 22.2325 37.0791C25.2479 35.8705 27.7433 34.0947 29.6494 31.8009C33.6273 27.0136 34.9356 20.0258 33.3334 12.1247ZM29.39 11.7193C27.8662 14.7489 25.96 17.7548 23.6988 20.6852C21.3744 23.6973 18.674 26.6365 15.6726 29.4212C12.5419 32.3259 9.72664 34.4589 7.99949 35.6854V28.45C7.99949 25.2749 9.05444 22.2853 11.0504 19.8042C12.9878 17.3959 15.7106 15.6666 18.7174 14.9349C19.9371 14.638 21.1359 14.3254 22.2953 14.0023L22.2973 14.0085L23.3562 13.7005C23.3663 13.6976 23.3764 13.6947 23.3864 13.6918V13.6917C25.4646 13.0871 27.4757 12.4254 29.39 11.7193ZM2.66362 19.7972C3.34494 16.7968 5.0331 14.0705 7.41701 12.1204C10.9278 9.24848 13.9434 6.44874 16.6269 3.56962L17.488 4.69203C19.2858 7.03534 20.6533 9.43175 21.5648 11.8311C20.4616 12.1374 19.3221 12.434 18.1626 12.7162C14.6607 13.5684 11.4905 15.5812 9.23596 18.3837C6.91166 21.273 5.68314 24.7538 5.68314 28.45V32.8704L3.73239 28.8909C2.33122 26.0326 1.96169 22.888 2.66362 19.7972ZM27.858 30.3522C26.1998 32.3477 24.0138 33.8987 21.3607 34.962C18.4584 36.1252 14.9731 36.7149 11.0016 36.7149H10.496C12.2464 35.4172 14.6125 33.5385 17.2187 31.1238C20.3203 28.2502 23.1135 25.2129 25.521 22.0964C27.7484 19.2129 29.6479 16.2543 31.1948 13.2658C32.4498 20.1938 31.2743 26.2409 27.858 30.3522Z" fill="#90BB32"></path> </svg> 